<svg width="20" height="20" viewBox="0 0 20 20" fill="none" xmlns="http://www.w3.org/2000/svg">
<rect width="20" height="20" fill="#DCDCDC"/>
<g id="Section 2121453838">
<rect width="23984" height="12303" transform="translate(-3354.7 -10832)" fill="#C7C7C7"/>
<g id="Frame 2121453675">
<g id="Frame 2121453754">
<rect width="1920" height="662" transform="translate(-363.077 -464)" fill="white"/>
<g id="Group 1000005379">
<g id="Frame 1533213142">
<g id="Frame 1533213138">
<g id="Frame 2121452751">
<g id="Frame 1533213108">
<g id="Frame 2121452750">
<g id="Frame 1533213139">
<g id="Frame 1533213095">
<rect x="-8" y="-8" width="36" height="36" rx="18" fill="white"/>
<g id="Huge-icon/social/solid/youtube">
<g id="youtube">
<path id="combo shape" fill-rule="evenodd" clip-rule="evenodd" d="M15.0503 2.5C17.2593 2.50017 19.0503 4.29097 19.0503 6.5V13.5C19.0503 15.709 17.2593 17.4998 15.0503 17.5H4.94971C2.74076 17.4998 0.949707 15.709 0.949707 13.5V6.5C0.949707 4.291 2.74075 2.50022 4.94971 2.5H15.0503ZM8.94775 7.39062C8.28285 7.05817 7.50049 7.54177 7.50049 8.28516V11.7148C7.50049 12.4582 8.28285 12.9418 8.94775 12.6094L12.3774 10.8945C13.1145 10.526 13.1145 9.47399 12.3774 9.10547L8.94775 7.39062Z" fill="#28303F"/>
</g>
</g>
</g>
</g>
</g>
</g>
</g>
</g>
</g>
</g>
</g>
</g>
</g>
</svg>
