<svg preserveAspectRatio="none" overflow="visible" style="display: block;" width="110.993" height="40" viewBox="0 0 110.993 40" fill="none" xmlns="http://www.w3.org/2000/svg">
<g id="Group 1">
<path id="Vector" d="M97.4088 8.4852C97.9923 8.42321 99.1092 8.48759 99.6914 8.56696C102.295 8.90458 104.647 10.2598 106.214 12.3241C108.551 15.365 108.764 18.86 108.331 22.6086C107.47 30.0486 99.3183 33.8389 92.7788 30.1738C91.887 29.6737 90.6516 27.1752 89.5421 27.976C89.3953 29.0124 89.4674 31.3406 89.4711 32.4749L89.4625 40C88.1267 39.9706 86.6906 39.9952 85.3463 39.995L85.3487 9.13285L89.3965 9.14328L89.3977 12.3384L90.5941 12.3118C92.2455 9.62645 94.369 8.77426 97.4088 8.4852ZM98.3189 27.9614C103.145 26.9667 104.77 23.0314 104.258 18.6635C103.682 13.756 100.362 11.8606 95.695 12.0588C91.2106 12.8802 89.4075 15.9172 89.4026 20.1574C89.3953 25.3382 92.9488 28.7547 98.3189 27.9614Z" fill="#001F16"/>
<path id="Vector_2" d="M9.80271 0.0239278H21.2619C23.0466 0.0204509 26.2542 -0.0747443 27.9436 0.140582C29.1308 0.28721 30.2841 0.629024 31.355 1.15175C36.001 3.47574 36.8641 9.92221 32.8895 13.44C32.2892 13.9712 30.544 14.7163 30.2251 15.3185C30.3904 16.1637 32.7277 16.9129 33.4143 17.7466C37.6086 22.8387 34.9273 29.7841 28.2191 30.5759C25.5661 30.889 23.2081 30.7646 20.6415 30.763L9.85653 30.7751C9.83182 29.4984 9.8268 28.2214 9.84172 26.9446C13.6229 26.7909 17.7454 27.0122 21.5539 26.9229C23.3965 26.8797 25.5218 27.0407 27.3192 26.7344C28.1963 26.4363 29.1017 26.0327 29.7603 25.3938C31.8913 23.559 31.1587 18.7828 28.4031 17.8821C25.5717 16.9568 20.9394 17.2948 17.8763 17.2958L0 17.3047C0.00550466 16.0293 0.0211647 14.754 0.0467308 13.4788C6.21244 13.3431 12.4407 13.563 18.6157 13.4719C21.3291 13.4318 24.4836 13.644 27.1569 13.2763C29.4589 12.9597 31.0172 10.8993 31.0046 8.60304C30.9741 3.01308 24.6746 3.83182 20.7806 3.83613L9.85017 3.82055L9.80271 0.0239278Z" fill="#001F16"/>
<path id="Vector_3" d="M71.4078 8.48676C71.5888 8.4677 71.7699 8.45823 71.9521 8.45811C77.036 8.46434 81.0238 11.1396 82.378 16.0619C82.8575 17.8033 82.7963 19.2269 82.7804 21.007L65.2144 21.0254C65.234 21.5067 65.2842 21.9864 65.3624 22.4618C65.6585 24.2221 66.6322 25.8528 68.149 26.8624C71.0359 28.7834 75.5742 28.576 77.7284 25.6604C77.9938 25.3005 78.2531 24.9425 78.5088 24.5755L78.625 24.442C79.1351 24.3468 81.4042 25.6596 82.0208 25.9873C81.6452 26.6939 81.1975 27.3616 80.685 27.9805C76.9186 32.4974 69.3747 32.6639 64.8841 29.1763C60.0804 25.4456 59.7171 16.5513 63.5936 12.0665C65.7209 9.60607 68.2212 8.77378 71.4078 8.48676ZM65.1973 18.0278C67.897 18.0088 70.5968 18.0035 73.2965 18.0118L78.625 18.0157C78.0012 13.3618 75.5522 11.8189 70.85 12.0568C67.2218 12.7651 65.9166 14.5921 65.1973 18.0278Z" fill="#001F16"/>
<path id="Vector_4" d="M47.6123 8.48433C47.7934 8.46899 47.9751 8.46047 48.1569 8.45879C52.3517 8.41803 55.8972 10.1912 57.8458 13.9016C59.0654 16.2264 59.1131 18.4532 59.1352 21.0056C53.3467 21.0898 47.3318 21.014 41.5266 21.0152C41.7307 25.8914 45.1416 28.6871 50.1951 27.9783C52.357 27.6751 53.5486 26.3532 54.7425 24.6827L54.9296 24.4491C55.5718 24.4169 57.6318 25.6289 58.3229 26.0019C56.4807 29.226 54.0868 31.0235 50.3073 31.4647C43.628 32.2445 38.0738 28.6189 37.3749 21.8377C36.8968 17.2012 38.0677 12.5722 42.3852 9.97555C44.0437 8.97805 45.7017 8.66609 47.6123 8.48433ZM41.5025 18.0309C44.1898 18.0081 46.8771 18.0015 49.5644 18.0111L54.9186 18.0234C54.351 13.2757 51.7006 11.842 47.0749 12.058C43.4951 12.8006 42.1791 14.6166 41.5025 18.0309Z" fill="#001F16"/>
<path id="Vector_5" d="M3.96032 6.74763C8.70375 6.67761 13.7147 6.72222 18.466 6.75147L18.4624 10.594L3.96191 10.5793L3.96032 6.74763Z" fill="#001F16"/>
<path id="Vector_6" d="M5.85544 20.1959L18.4748 20.1924L18.4634 24.0178C14.3604 24.0943 10.0118 24.0189 5.89214 24.0163L5.85544 20.1959Z" fill="#001F16"/>
<path id="Vector_7" d="M109.49 8.96271C110.141 8.82843 110.784 9.21808 110.952 9.84812C111.12 10.478 110.755 11.1266 110.121 11.3219C109.682 11.4569 109.204 11.3446 108.876 11.0295C108.548 10.7145 108.423 10.248 108.552 9.81563C108.68 9.3833 109.041 9.05551 109.49 8.96271ZM109.999 11.1265C110.357 11.0358 110.637 10.7605 110.728 10.4084C110.819 10.0564 110.707 9.68362 110.435 9.43617C110.164 9.18871 109.777 9.10599 109.425 9.22048C108.906 9.38917 108.618 9.93084 108.772 10.4449C108.926 10.9589 109.469 11.2604 109.999 11.1265Z" fill="#001F16"/>
<path id="Vector_8" d="M109.425 9.21961C109.777 9.10511 110.164 9.18783 110.435 9.43529C110.707 9.68275 110.82 10.0555 110.728 10.4075C110.637 10.7596 110.357 11.0349 109.999 11.1256C109.469 11.2596 108.926 10.958 108.772 10.4441C108.618 9.92997 108.906 9.3883 109.425 9.21961Z" fill="#001F16"/>
</g>
</svg>
