<svg overflow="visible" style="display: block;" viewBox="0 0 103 32" fill="none" xmlns="http://www.w3.org/2000/svg">
<g id="Group">
<g id="Vector">
</g>
<path id="Vector_2" d="M44.9828 12.614C44.4388 11.885 43.7258 11.299 42.9048 10.907C42.0688 10.5 41.0808 10.297 39.9418 10.297C38.8018 10.297 37.8788 10.515 37.0558 10.952C36.2318 11.389 35.5028 12.025 34.8708 12.857V4.87H31.4208V26.64H34.7788V24.75C35.4508 25.604 36.1948 26.212 37.0088 26.58C37.8458 26.95 38.7518 27.138 39.6658 27.129C40.7228 27.129 41.6808 26.93 42.5368 26.535C43.3868 26.142 44.1388 25.564 44.7368 24.844C45.3458 24.111 45.8168 23.222 46.1418 22.176C46.4678 21.13 46.6298 19.956 46.6298 18.654C46.6298 17.352 46.4928 16.281 46.2168 15.254C45.9408 14.227 45.5298 13.348 44.9798 12.615L44.9828 12.613V12.614ZM42.6908 21.305C42.4868 22.018 42.2028 22.592 41.8348 23.029C41.4918 23.449 41.0508 23.779 40.5508 23.99C40.0478 24.197 39.5078 24.301 38.9638 24.296C38.4338 24.296 37.9258 24.224 37.4358 24.082C36.9418 23.935 36.4948 23.662 36.1378 23.29C35.7618 22.905 35.4558 22.386 35.2218 21.735C34.9878 21.084 34.8618 20.252 34.8418 19.233V18.227C34.8418 17.475 34.9228 16.789 35.0848 16.168C35.2278 15.588 35.4878 15.044 35.8488 14.568C36.1988 14.118 36.6558 13.762 37.1778 13.533C37.7178 13.289 38.3648 13.168 39.1178 13.168C39.6278 13.168 40.1208 13.269 40.5978 13.473C41.0758 13.677 41.4898 13.997 41.8348 14.434C42.1808 14.872 42.4618 15.44 42.6758 16.141C42.8898 16.841 42.9968 17.691 42.9968 18.687C42.9968 19.683 42.8948 20.597 42.6908 21.31V21.305ZM61.0058 12.126C60.5178 11.556 59.8608 11.11 59.0358 10.784C58.2118 10.459 57.1668 10.297 55.9058 10.297C53.9498 10.297 52.4118 10.653 51.2928 11.366C50.1728 12.078 49.4688 13.206 49.1848 14.751L52.3618 15.086C52.5238 14.396 52.8678 13.866 53.3848 13.502C53.9048 13.136 54.7038 12.952 55.7838 12.952C56.7188 12.952 57.4778 13.182 58.0598 13.638C58.6398 14.095 58.9308 14.925 58.9308 16.125V16.795L56.5798 16.917C55.6018 16.959 54.6238 17.054 53.6458 17.207C52.7298 17.341 51.8388 17.613 51.0038 18.015C50.2448 18.381 49.5888 18.931 49.0958 19.615C48.6078 20.295 48.3618 21.185 48.3618 22.283C48.3618 23.095 48.4988 23.803 48.7748 24.401C49.0308 24.976 49.4178 25.482 49.9048 25.879C50.4068 26.278 50.9828 26.574 51.5988 26.749C52.2838 26.947 52.9938 27.045 53.7058 27.039C54.9278 27.039 55.9658 26.806 56.8208 26.339C57.6508 25.893 58.3868 25.293 58.9908 24.57V26.645H62.3198V16.733C62.3198 15.799 62.2228 14.94 62.0288 14.158C61.8528 13.411 61.5028 12.716 61.0058 12.131V12.126ZM58.9278 20.054C58.9278 21.376 58.5628 22.422 57.8278 23.194C57.0948 23.967 55.9648 24.352 54.4378 24.352C53.5818 24.352 52.9348 24.158 52.4968 23.773C52.0588 23.388 51.8398 22.849 51.8398 22.156C51.8398 21.771 51.8948 21.408 52.0068 21.073C52.1188 20.738 52.3468 20.442 52.6928 20.189C53.0388 19.935 53.5338 19.727 54.1728 19.563C54.8158 19.401 55.6538 19.289 56.6938 19.227L58.9238 19.135V20.049L58.9278 20.054ZM72.8698 10.542C71.9948 10.542 71.1688 10.765 70.3978 11.212C69.6238 11.66 68.9618 12.301 68.4118 13.132V10.785H65.0528V26.643H68.5038V17.343C68.5078 16.408 68.8748 15.511 69.5268 14.842C69.8808 14.484 70.3008 14.199 70.7638 14.002C71.2508 13.789 71.8208 13.682 72.4728 13.682C72.7588 13.682 73.0328 13.692 73.2958 13.712C73.5598 13.732 73.8058 13.774 74.0298 13.833L74.4278 10.661C74.2008 10.62 73.9718 10.589 73.7418 10.569C73.5078 10.549 73.2168 10.539 72.8708 10.539L72.8698 10.542ZM84.9928 24.079C84.6638 24.121 84.3318 24.141 83.9998 24.141C83.3478 24.141 82.8548 23.957 82.5198 23.592C82.1838 23.227 82.0148 22.636 82.0148 21.824V13.529H85.9548V10.785H82.0148V6.515H78.5628V10.785H76.0578V13.53H78.5628V21.518C78.5628 23.326 78.9088 24.685 79.6008 25.589C80.2928 26.494 81.5138 26.946 83.2658 26.946C84.4058 26.946 85.4658 26.782 86.4428 26.459L85.9228 23.868C85.6208 23.969 85.3088 24.04 84.9928 24.081V24.079ZM102.459 18.04C102.459 16.883 102.318 15.83 102.032 14.883C101.745 13.937 101.308 13.125 100.718 12.443C100.128 11.763 99.3838 11.234 98.4878 10.859C97.5928 10.484 96.5328 10.295 95.3108 10.295C94.1708 10.295 93.1268 10.485 92.1808 10.859C91.2558 11.221 90.4218 11.783 89.7388 12.506C89.0568 13.229 88.5268 14.118 88.1508 15.174C87.7748 16.232 87.5858 17.442 87.5858 18.803C87.5858 21.446 88.2428 23.495 89.5558 24.948C90.8698 26.401 92.7888 27.129 95.3138 27.129C97.4118 27.129 99.0188 26.677 100.141 25.773C101.26 24.869 101.962 23.593 102.248 21.945H98.8888C98.7048 22.738 98.3388 23.349 97.7888 23.775C97.2388 24.203 96.4158 24.417 95.3158 24.417C93.9098 24.417 92.8628 23.97 92.1708 23.075C91.4798 22.181 91.1108 21.011 91.0708 19.568H102.464V18.043L102.459 18.04ZM91.1288 17.159C91.2308 15.877 91.6168 14.856 92.2908 14.093C92.9628 13.331 93.9408 12.951 95.2248 12.951C96.5078 12.951 97.5448 13.328 98.1578 14.078C98.7678 14.831 99.0728 15.857 99.0728 17.158H91.1298L91.1288 17.159ZM19.6608 15.475H14.9758L20.5768 2.847C20.8458 2.252 20.7878 1.561 20.4248 1.018C20.0098 0.38 19.2708 0 18.4518 0H8.86082C7.34482 0 6.00382 0.815 5.44682 2.074L0.146823 14.017C-0.0891771 14.541 -0.0381771 15.15 0.281823 15.627C0.644823 16.186 1.28982 16.518 2.00382 16.518H6.55182L0.826823 29.433C0.584823 29.97 0.636823 30.594 0.963823 31.083C1.33682 31.653 1.99582 31.996 2.72982 31.996H12.5228C14.1728 31.996 15.6308 31.112 16.2378 29.741L21.4778 17.922C21.7108 17.409 21.6608 16.812 21.3458 16.345C20.9898 15.798 20.3598 15.473 19.6638 15.473L19.6608 15.475ZM2.00082 15.475C1.64282 15.475 1.32682 15.319 1.15782 15.058C1.03382 14.875 1.01282 14.641 1.10282 14.439L6.40282 2.494C6.78782 1.624 7.77582 1.041 8.86082 1.041H15.7128C16.0708 1.041 16.3868 1.197 16.5558 1.458C16.6798 1.641 16.7008 1.875 16.6108 2.077L11.3458 13.95C10.9408 14.862 9.90582 15.475 8.76582 15.475H2.00082ZM20.5198 17.502L15.2798 29.321C14.8468 30.297 13.7368 30.955 12.5198 30.955H5.82882C5.48482 30.955 5.18382 30.806 5.02282 30.558C4.90582 30.385 4.88582 30.163 4.96982 29.972L10.4598 17.594C10.7428 16.954 11.4768 16.521 12.2848 16.521H19.6648C20.0078 16.521 20.3088 16.67 20.4708 16.918C20.5888 17.09 20.6088 17.312 20.5228 17.502H20.5198Z" fill="var(--fill-0, white)"/>
</g>
</svg>
