<svg width="32" height="32" viewBox="0 0 32 32" fill="none" xmlns="http://www.w3.org/2000/svg">
<path fill-rule="evenodd" clip-rule="evenodd" d="M13.3333 1.66699C13.8856 1.66699 14.3333 2.11471 14.3333 2.66699V5.33366H12.3333V2.66699C12.3333 2.11471 12.781 1.66699 13.3333 1.66699ZM18.6666 1.66699C19.2189 1.66699 19.6666 2.11471 19.6666 2.66699V5.33366H17.6666V2.66699C17.6666 2.11471 18.1143 1.66699 18.6666 1.66699ZM1.66663 13.3337C1.66663 12.7814 2.11434 12.3337 2.66663 12.3337H5.33329V14.3337H2.66663C2.11434 14.3337 1.66663 13.8859 1.66663 13.3337ZM26.6666 12.3337H29.3333C29.8856 12.3337 30.3333 12.7814 30.3333 13.3337C30.3333 13.8859 29.8856 14.3337 29.3333 14.3337H26.6666V12.3337ZM1.66663 18.667C1.66663 18.1147 2.11434 17.667 2.66663 17.667H5.33329V19.667H2.66663C2.11434 19.667 1.66663 19.2193 1.66663 18.667ZM26.6666 17.667H29.3333C29.8856 17.667 30.3333 18.1147 30.3333 18.667C30.3333 19.2193 29.8856 19.667 29.3333 19.667H26.6666V17.667ZM14.3333 26.667V29.3337C14.3333 29.8859 13.8856 30.3337 13.3333 30.3337C12.781 30.3337 12.3333 29.8859 12.3333 29.3337V26.667H14.3333ZM19.6666 26.667V29.3337C19.6666 29.8859 19.2189 30.3337 18.6666 30.3337C18.1143 30.3337 17.6666 29.8859 17.6666 29.3337V26.667H19.6666Z" fill="currentColor"/>
<path opacity="0.4" d="M5.33337 10.6663C5.33337 7.72082 7.72119 5.33301 10.6667 5.33301H21.3334C24.2789 5.33301 26.6667 7.72082 26.6667 10.6663V21.333C26.6667 24.2785 24.2789 26.6663 21.3334 26.6663H10.6667C7.72119 26.6663 5.33337 24.2785 5.33337 21.333V10.6663Z" fill="currentColor"/>
<path d="M11.3333 13.3333C11.3333 12.2288 12.2288 11.3333 13.3333 11.3333H18.6667C19.7712 11.3333 20.6667 12.2288 20.6667 13.3333V18.6667C20.6667 19.7712 19.7712 20.6667 18.6667 20.6667H13.3333C12.2288 20.6667 11.3333 19.7712 11.3333 18.6667V13.3333Z" fill="currentColor"/>
</svg>
